<?xml version="1.0" encoding="utf-8"?>
<!-- Generator: Adobe Illustrator 18.0.0, SVG Export Plug-In . SVG Version: 6.00 Build 0)  -->
<!DOCTYPE svg PUBLIC "-//W3C//DTD SVG 1.1//EN" "http://www.w3.org/Graphics/SVG/1.1/DTD/svg11.dtd">
<svg version="1.1" xmlns="http://www.w3.org/2000/svg" xmlns:xlink="http://www.w3.org/1999/xlink" x="0px" y="0px"
	 viewBox="0 0 838.5 342" enable-background="new 0 0 838.5 342" xml:space="preserve">
<g id="logo-bg-dark">
	<g id="test-tube">
		<path id="shadow_2_" opacity="0.3" d="M749.4,8.9c-0.2,0.6-0.2,1.3,0,1.9c0,0,2.1,13.7-0.3,19.8l-99.7,259.2l0,0
			c-7.1,19,2.4,40.3,21.4,47.6c19,7.3,40.3-2.1,47.8-21l0,0l99.7-259.2c1.9-5.1,13.1-14.9,13.1-14.9c0.6-0.4,1-0.9,1.3-1.5l0-0.1
			c0.1-0.1,0.1-0.2,0.2-0.3c2.6-6.7-14-19.3-37-28.1c-23-8.9-43.8-10.6-46.3-3.9c0,0.1-0.1,0.2-0.1,0.3L749.4,8.9z"/>
		
			<linearGradient id="tube_3_" gradientUnits="userSpaceOnUse" x1="671.5791" y1="264.2074" x2="734.7349" y2="327.3633" gradientTransform="matrix(0.9138 -0.4062 0.4062 0.9138 -32.1957 188.0096)">
			<stop  offset="0" style="stop-color:#919191"/>
			<stop  offset="1" style="stop-color:#FFFFFF"/>
		</linearGradient>
		<path id="tube_2_" fill="url(#tube_3_)" d="M746.5,6.7c-0.2,0.6-0.2,1.3,0,1.9c0,0,2.1,13.7-0.3,19.8l-99.7,259.2l0,0
			c-7.1,19,2.4,40.3,21.4,47.6c19,7.3,40.3-2.1,47.8-21l0,0l99.7-259.2c1.9-5.1,13.1-14.9,13.1-14.9c0.6-0.4,1-0.9,1.3-1.5l0-0.1
			c0.1-0.1,0.1-0.2,0.2-0.3c2.6-6.7-14-19.3-37-28.1c-23-8.9-43.8-10.6-46.3-3.9c0,0.1-0.1,0.2-0.1,0.3L746.5,6.7z"/>
		
			<linearGradient id="liquid_2_" gradientUnits="userSpaceOnUse" x1="647.8314" y1="312.3866" x2="686.066" y2="350.6212" gradientTransform="matrix(0.9138 -0.4062 0.4062 0.9138 -32.1957 188.0096)">
			<stop  offset="0" style="stop-color:#990000"/>
			<stop  offset="1" style="stop-color:#E80000"/>
		</linearGradient>
		<path id="liquid" fill="url(#liquid_2_)" d="M777.8,123.9l-71.9,186.9l0,0c-5.3,13.4-20.7,20.4-34.4,15.1
			c-13.7-5.3-21.1-21-16.1-34.5l0,0L701.4,172c0,0,5.7-9.3,17-15.8c11.3-6.6,20.6-5.2,33.1-10.8C764,139.9,777.8,123.9,777.8,123.9z
			"/>
		
			<ellipse id="top" transform="matrix(0.9334 0.359 -0.359 0.9334 60.7525 -281.3684)" fill="#333333" cx="788.1" cy="22.9" rx="27.7" ry="7.3"/>
		<path id="side-reflection" opacity="0.3" fill="#FFFFFF" d="M746.5,8.6c0,0,2,13.8-0.3,19.8l-99.7,259.2l0,0
			c-7.1,19,2.4,40.3,21.4,47.6c3.3,1.3,6.7,2,10,2.3c-12.8-9.6-18.3-26.9-12.4-42.6l0,0l97.7-254C763.3,40.9,750,28.4,746.5,8.6z"/>
		<g id="bubbles">
			<circle opacity="0.5" fill="#FFFFFF" cx="714.4" cy="175.8" r="2.9"/>
			<circle opacity="0.5" fill="#FFFFFF" cx="733.3" cy="196.7" r="4.4"/>
			<circle opacity="0.5" fill="#FFFFFF" cx="704.4" cy="221.6" r="8.2"/>
			<circle opacity="0.5" fill="#FFFFFF" cx="691.2" cy="236.8" r="4.4"/>
			<circle opacity="0.5" fill="#FFFFFF" cx="708.6" cy="269.1" r="2.9"/>
		</g>
	</g>
	<g id="jekyll-text">
		<g opacity="0.3">
			<g>
				<path d="M200.4,159.9c4.4,3.5,12.4,1.5,17.7-4.4c5.6-6.2,6.5-14.1,2.1-17.6c-4.4-3.5-12.4-1.5-17.7,4.7
					C196.9,148.7,196,156.3,200.4,159.9z M187.4,171.3c-1.2,0-3.2,2.1-1.5,2.9c2.4,0.9,3.5,2.9,3.5,5.9c-2.1,12.1-17.1,25.9-23,30.6
					c-1.5,1.5,0.6,4.7,2.1,3.5c3.2-2.6,10-7.9,15.6-15c-9.1,20.3-26.8,46.5-33.6,55.6c-26.5,36.8-66.8,70.6-94.5,70.6
					c-22.1,0-40.9-15-45-37.1c-0.3-2.4-3.5-2.9-2.9,0.3c5,30.3,28.3,42.1,56.5,42.1c30.9,0,67.2-22.4,87.1-45.3
					c32.3-37.1,53.3-79.7,47.7-103.8C197.1,172.5,191,171.1,187.4,171.3z M386,252c8.5-2.1,15.6-6.8,15.6-14.2c0-0.7-1.5-0.7-1.5,0
					c0,4.4-5,8-10.6,8.9c-13.2,2.1-39.4-13.5-51.8-29.4c13.2,5,40.3-2.3,53-11.4c11.8-8.5,16.5-17.9,17.4-25.6
					c1.5-12.6-12.4-20-31.5-12.6c-12.4,5-27.1,15.9-42.4,36.2c16.2-26.8,48-70.3,79.2-98.2c38-33.8,60-27.3,25.9,8.5
					c-14.1,14.7-40.6,33.8-58.9,42.1c-5.6,2.4-2.9,5.6,1.2,3.8c19.4-8.5,45.3-26.2,60.9-40.9c46.2-44.4,7.7-77.9-43.6-30.9
					c-34.7,32.1-57.4,65.6-77.1,109.1c-6.8,8.2-11.8,15-18,20.3c-0.7,0.6-1.3,1.3-1.8,1.9c-17,14.6-43.7,34.2-60.3,34.5
					c-11.8,0.3-16.8-8.5-14.7-20c3.2-17.9,21.8-39.1,37.7-46.5c20.6-9.4,32.7,8.8,5.6,23.5c-10.3,5.3-22.7,8.2-27.7,8.2
					c-5.9,0-5.3,2.4-0.3,2.6c8.2,0.3,21.5-3.2,30.3-7.4c27.7-13.2,29.4-37.9-0.6-38.8c-32.7-1.2-71.8,26.8-71.5,61.8
					c0.3,15.9,13,24.4,30.3,24.4c28.9-0.3,54.7-22.3,75.8-41.6c3-2.5,6-5.3,8.9-8.2c-7.4,18.8-11.2,36.2-9.4,49.1
					c1.2,9.4,6.5,13.8,10.6,17.3c0.9,0.6,2.6,0,1.5-1.8c-6.2-7.4-4.4-29.2,4.1-50.3C329.5,240.6,357.2,258.4,386,252z M351.3,190.6
					c33.8-30.3,47.1-3.2,25.6,13.2c-11.2,8.5-33.3,15-40.3,10.9l-1.5-0.9c-0.9-1.5-1.8-2.9-2.4-4.4
					C338.3,202.7,344.8,196.5,351.3,190.6z M539.1,156.3c13.5,1.5,7.9-15-5.9-10.9c-6.2,1.8-12.1,13.5-16.5,23.8
					c-13.5,20.3-36.2,47.9-52.1,62.3c-14.1,12.1-27.1,15.3-11.2-7.4c6.5-9.1,14.7-18.8,19.4-28.5c11.2-24.4-12.7-35.3-31.8-20.6
					c-11.2,8.5-26.2,26.2-38,35.9c-3.2,2.6-2.4,6.5,0.9,3.8c9.4-7.6,25.9-25,40-35.3c11.8-9.1,16.5-3.2,9.7,4.4
					c-9.4,10.9-25.9,29.7-30,41.8c-5.9,17.9,1.2,25.9,12.9,25.9c16.2,0,40.3-25.3,56.5-45.3c5.3-6.8,11.2-14.7,16.2-22.3
					c-14.1,27.3-28.8,55-47.1,80c-25.9,35.3-58.3,61.8-88.9,61.8c-22.1,0-41.2-15-45.3-37.1c-0.3-2.4-3.2-2.9-2.9,0.3
					c5,30.3,28.3,42.1,56.5,42.1c30.9,0,60.6-17.9,81.5-40c42.1-44.4,47.1-94.4,60-122.3C529.1,156.3,534.7,155.7,539.1,156.3z
					 M710.2,113.5c6.2-10.6,5.9-18.8-8.5-18.8c-10.9,0.3-30.6,7.9-39.7,15c-2.1,2.1-1.2,3.2,1.5,2.1c1.8-0.6,3.8-1.8,5.9-2.6
					c10.3-5.6,6.2,6.2,3.8,10.6c-12.4,21.5-34.1,51.8-45.6,66.8c-5.5,7.4-11.7,14.8-17.7,21c-11.1,10.5-32.9,29.1-49.4,35.3
					c-53.6,20,14.7-71.2,20.3-78.5c12.7-15.9,40.9-43.5,49.4-57.3c6.2-10.6,5.9-18.8-8.5-18.8c-10.9,0.3-30.6,7.9-39.7,15
					c-2.1,2.1-1.2,3.2,1.5,2.1c1.8-0.6,3.8-1.8,5.9-2.6c10.3-5.6,6.2,6.2,3.8,10.6c-12.4,21.5-34.1,51.8-45.6,66.8
					c-9.4,12.6-20.9,25.3-29.7,32.3c-3.5,2.9-1.5,5.6,2.1,3.2c3.2-2.1,7.9-6.8,13.2-12.4c-9.7,19.4-17.7,46.8,7.9,50
					c21.8,3,47.8-19.3,64.5-35.8c1.8-1.8,3.9-3.8,6-6c0.5-0.5,1-1,1.5-1.5c-9.7,19.4-17.6,46.7,8,49.9c28,3.8,62.7-33.8,76.2-47.6
					c2.6-2.6,1.8-7.1-2.6-2.6c-7.9,8.2-34.7,32.6-54.2,40c-53.6,20,14.7-71.2,20.3-78.5C673.4,154.9,701.7,127.3,710.2,113.5z"/>
			</g>
		</g>
		<g>
			<g>
				<g>
					<linearGradient id="SVGID_1_" gradientUnits="userSpaceOnUse" x1="358.2588" y1="328.147" x2="358.2588" y2="62.6757">
						<stop  offset="0" style="stop-color:#919191"/>
						<stop  offset="1" style="stop-color:#FFFFFF"/>
					</linearGradient>
					<path fill="url(#SVGID_1_)" d="M197.6,157.1c4.4,3.5,12.4,1.5,17.7-4.4c5.6-6.2,6.5-14.1,2.1-17.6c-4.4-3.5-12.4-1.5-17.7,4.7
						C194,145.9,193.1,153.5,197.6,157.1z M184.6,168.5c-1.2,0-3.2,2.1-1.5,2.9c2.4,0.9,3.5,2.9,3.5,5.9
						c-2.1,12.1-17.1,25.9-23,30.6c-1.5,1.5,0.6,4.7,2.1,3.5c3.2-2.6,10-7.9,15.6-15c-9.1,20.3-26.8,46.5-33.6,55.6
						c-26.5,36.8-66.8,70.6-94.5,70.6c-22.1,0-40.9-15-45-37.1c-0.3-2.4-3.5-2.9-2.9,0.3c5,30.3,28.3,42,56.5,42
						c30.9,0,67.2-22.4,87.1-45.3c32.3-37.1,53.3-79.7,47.7-103.8C194.3,169.7,188.1,168.2,184.6,168.5z M383.2,249.2
						c8.5-2.1,15.6-6.8,15.6-14.2c0-0.7-1.5-0.7-1.5,0c0,4.4-5,8-10.6,8.9c-13.2,2.1-39.4-13.5-51.8-29.4c13.2,5,40.3-2.3,53-11.4
						c11.8-8.5,16.5-17.9,17.4-25.6c1.5-12.6-12.4-20-31.5-12.6c-12.4,5-27.1,15.9-42.4,36.2c16.2-26.8,48-70.3,79.2-98.2
						c38-33.8,60-27.3,25.9,8.5c-14.1,14.7-40.6,33.8-58.9,42.1c-5.6,2.4-2.9,5.6,1.2,3.8c19.4-8.5,45.3-26.2,60.9-40.9
						c46.2-44.4,7.7-77.9-43.6-30.9c-34.7,32.1-57.4,65.6-77.1,109.1c-6.8,8.2-11.8,15-18,20.3c-0.7,0.6-1.3,1.3-1.8,1.9
						c-17,14.6-43.7,34.2-60.3,34.5c-11.8,0.3-16.8-8.5-14.7-20c3.2-17.9,21.8-39.1,37.7-46.5c20.6-9.4,32.7,8.8,5.6,23.5
						c-10.3,5.3-22.7,8.2-27.7,8.2c-5.9,0-5.3,2.4-0.3,2.6c8.2,0.3,21.5-3.2,30.3-7.4c27.7-13.2,29.4-37.9-0.6-38.8
						c-32.7-1.2-71.8,26.8-71.5,61.8c0.3,15.9,13,24.4,30.3,24.4c28.9-0.3,54.7-22.3,75.8-41.6c3-2.5,6-5.3,8.9-8.2
						c-7.4,18.8-11.2,36.2-9.4,49.1c1.2,9.4,6.5,13.8,10.6,17.3c0.9,0.6,2.6,0,1.5-1.8c-6.2-7.4-4.4-29.2,4.1-50.3
						C326.7,237.7,354.3,255.6,383.2,249.2z M348.5,187.8c33.8-30.3,47.1-3.2,25.6,13.2c-11.2,8.5-33.3,15-40.3,10.9l-1.5-0.9
						c-0.9-1.5-1.8-2.9-2.4-4.4C335.5,199.9,342,193.7,348.5,187.8z M536.3,153.5c13.5,1.5,7.9-15-5.9-10.9
						c-6.2,1.8-12.1,13.5-16.5,23.8c-13.5,20.3-36.2,47.9-52.1,62.3c-14.1,12.1-27.1,15.3-11.2-7.4c6.5-9.1,14.7-18.8,19.4-28.5
						c11.2-24.4-12.7-35.3-31.8-20.6c-11.2,8.5-26.2,26.2-38,35.9c-3.2,2.6-2.4,6.5,0.9,3.8c9.4-7.6,25.9-25,40-35.3
						c11.8-9.1,16.5-3.2,9.7,4.4c-9.4,10.9-25.9,29.7-30,41.8c-5.9,17.9,1.2,25.9,12.9,25.9c16.2,0,40.3-25.3,56.5-45.3
						c5.3-6.8,11.2-14.7,16.2-22.3c-14.1,27.3-28.8,55-47.1,80c-25.9,35.3-58.3,61.8-88.9,61.8c-22.1,0-41.2-15-45.3-37.1
						c-0.3-2.4-3.2-2.9-2.9,0.3c5,30.3,28.3,42,56.5,42c30.9,0,60.6-17.9,81.5-40c42.1-44.4,47.1-94.4,60-122.3
						C526.3,153.5,531.9,152.9,536.3,153.5z M707.4,110.7c6.2-10.6,5.9-18.8-8.5-18.8c-10.9,0.3-30.6,7.9-39.7,15
						c-2.1,2.1-1.2,3.2,1.5,2.1c1.8-0.6,3.8-1.8,5.9-2.6c10.3-5.6,6.2,6.2,3.8,10.6c-12.4,21.5-34.1,51.8-45.6,66.8
						c-5.5,7.4-11.7,14.8-17.7,21c-11.1,10.5-32.9,29.1-49.4,35.3c-53.6,20,14.7-71.2,20.3-78.5c12.7-15.9,40.9-43.5,49.4-57.3
						c6.2-10.6,5.9-18.8-8.5-18.8c-10.9,0.3-30.6,7.9-39.7,15c-2.1,2.1-1.2,3.2,1.5,2.1c1.8-0.6,3.8-1.8,5.9-2.6
						c10.3-5.6,6.2,6.2,3.8,10.6c-12.4,21.5-34.1,51.8-45.6,66.8c-9.4,12.6-20.9,25.3-29.7,32.3c-3.5,2.9-1.5,5.6,2.1,3.2
						c3.2-2.1,7.9-6.8,13.2-12.4c-9.7,19.4-17.7,46.8,7.9,50c21.8,3,47.8-19.3,64.5-35.8c1.8-1.8,3.9-3.8,6-6c0.5-0.5,1-1,1.5-1.5
						c-9.7,19.4-17.6,46.7,8,49.9c28,3.8,62.7-33.8,76.2-47.6c2.6-2.6,1.8-7.1-2.6-2.6c-7.9,8.2-34.7,32.6-54.2,40
						c-53.6,20,14.7-71.2,20.3-78.5C670.6,152.1,698.9,124.5,707.4,110.7z"/>
				</g>
			</g>
			<defs>
				<filter id="Adobe_OpacityMaskFilter" filterUnits="userSpaceOnUse" x="5.3" y="62.7" width="705.9" height="265.5">
					
						<feColorMatrix  type="matrix" values="-1 0 0 0 1  0 -1 0 0 1  0 0 -1 0 1  0 0 0 1 0" color-interpolation-filters="sRGB" result="source"/>
				</filter>
			</defs>
			<mask maskUnits="userSpaceOnUse" x="5.3" y="62.7" width="705.9" height="265.5" id="SVGID_2_">
				<g filter="url(#Adobe_OpacityMaskFilter)">
					
						<image overflow="visible" width="711" height="270" xlink:href="DF14084F466B3558.jpg"  transform="matrix(1 0 0 1 3 60.5113)">
					</image>
				</g>
			</mask>
			<g opacity="0.75" mask="url(#SVGID_2_)">
				<g>
					<path fill="#FFFFFF" d="M197.6,157.1c4.4,3.5,12.4,1.5,17.7-4.4c5.6-6.2,6.5-14.1,2.1-17.6c-4.4-3.5-12.4-1.5-17.7,4.7
						C194,145.9,193.1,153.5,197.6,157.1z M184.6,168.5c-1.2,0-3.2,2.1-1.5,2.9c2.4,0.9,3.5,2.9,3.5,5.9
						c-2.1,12.1-17.1,25.9-23,30.6c-1.5,1.5,0.6,4.7,2.1,3.5c3.2-2.6,10-7.9,15.6-15c-9.1,20.3-26.8,46.5-33.6,55.6
						c-26.5,36.8-66.8,70.6-94.5,70.6c-22.1,0-40.9-15-45-37.1c-0.3-2.4-3.5-2.9-2.9,0.3c5,30.3,28.3,42,56.5,42
						c30.9,0,67.2-22.4,87.1-45.3c32.3-37.1,53.3-79.7,47.7-103.8C194.3,169.7,188.1,168.2,184.6,168.5z M383.2,249.2
						c8.5-2.1,15.6-6.8,15.6-14.2c0-0.7-1.5-0.7-1.5,0c0,4.4-5,8-10.6,8.9c-13.2,2.1-39.4-13.5-51.8-29.4c13.2,5,40.3-2.3,53-11.4
						c11.8-8.5,16.5-17.9,17.4-25.6c1.5-12.6-12.4-20-31.5-12.6c-12.4,5-27.1,15.9-42.4,36.2c16.2-26.8,48-70.3,79.2-98.2
						c38-33.8,60-27.3,25.9,8.5c-14.1,14.7-40.6,33.8-58.9,42.1c-5.6,2.4-2.9,5.6,1.2,3.8c19.4-8.5,45.3-26.2,60.9-40.9
						c46.2-44.4,7.7-77.9-43.6-30.9c-34.7,32.1-57.4,65.6-77.1,109.1c-6.8,8.2-11.8,15-18,20.3c-0.7,0.6-1.3,1.3-1.8,1.9
						c-17,14.6-43.7,34.2-60.3,34.5c-11.8,0.3-16.8-8.5-14.7-20c3.2-17.9,21.8-39.1,37.7-46.5c20.6-9.4,32.7,8.8,5.6,23.5
						c-10.3,5.3-22.7,8.2-27.7,8.2c-5.9,0-5.3,2.4-0.3,2.6c8.2,0.3,21.5-3.2,30.3-7.4c27.7-13.2,29.4-37.9-0.6-38.8
						c-32.7-1.2-71.8,26.8-71.5,61.8c0.3,15.9,13,24.4,30.3,24.4c28.9-0.3,54.7-22.3,75.8-41.6c3-2.5,6-5.3,8.9-8.2
						c-7.4,18.8-11.2,36.2-9.4,49.1c1.2,9.4,6.5,13.8,10.6,17.3c0.9,0.6,2.6,0,1.5-1.8c-6.2-7.4-4.4-29.2,4.1-50.3
						C326.7,237.7,354.3,255.6,383.2,249.2z M348.5,187.8c33.8-30.3,47.1-3.2,25.6,13.2c-11.2,8.5-33.3,15-40.3,10.9l-1.5-0.9
						c-0.9-1.5-1.8-2.9-2.4-4.4C335.5,199.9,342,193.7,348.5,187.8z M536.3,153.5c13.5,1.5,7.9-15-5.9-10.9
						c-6.2,1.8-12.1,13.5-16.5,23.8c-13.5,20.3-36.2,47.9-52.1,62.3c-14.1,12.1-27.1,15.3-11.2-7.4c6.5-9.1,14.7-18.8,19.4-28.5
						c11.2-24.4-12.7-35.3-31.8-20.6c-11.2,8.5-26.2,26.2-38,35.9c-3.2,2.6-2.4,6.5,0.9,3.8c9.4-7.6,25.9-25,40-35.3
						c11.8-9.1,16.5-3.2,9.7,4.4c-9.4,10.9-25.9,29.7-30,41.8c-5.9,17.9,1.2,25.9,12.9,25.9c16.2,0,40.3-25.3,56.5-45.3
						c5.3-6.8,11.2-14.7,16.2-22.3c-14.1,27.3-28.8,55-47.1,80c-25.9,35.3-58.3,61.8-88.9,61.8c-22.1,0-41.2-15-45.3-37.1
						c-0.3-2.4-3.2-2.9-2.9,0.3c5,30.3,28.3,42,56.5,42c30.9,0,60.6-17.9,81.5-40c42.1-44.4,47.1-94.4,60-122.3
						C526.3,153.5,531.9,152.9,536.3,153.5z M707.4,110.7c6.2-10.6,5.9-18.8-8.5-18.8c-10.9,0.3-30.6,7.9-39.7,15
						c-2.1,2.1-1.2,3.2,1.5,2.1c1.8-0.6,3.8-1.8,5.9-2.6c10.3-5.6,6.2,6.2,3.8,10.6c-12.4,21.5-34.1,51.8-45.6,66.8
						c-5.5,7.4-11.7,14.8-17.7,21c-11.1,10.5-32.9,29.1-49.4,35.3c-53.6,20,14.7-71.2,20.3-78.5c12.7-15.9,40.9-43.5,49.4-57.3
						c6.2-10.6,5.9-18.8-8.5-18.8c-10.9,0.3-30.6,7.9-39.7,15c-2.1,2.1-1.2,3.2,1.5,2.1c1.8-0.6,3.8-1.8,5.9-2.6
						c10.3-5.6,6.2,6.2,3.8,10.6c-12.4,21.5-34.1,51.8-45.6,66.8c-9.4,12.6-20.9,25.3-29.7,32.3c-3.5,2.9-1.5,5.6,2.1,3.2
						c3.2-2.1,7.9-6.8,13.2-12.4c-9.7,19.4-17.7,46.8,7.9,50c21.8,3,47.8-19.3,64.5-35.8c1.8-1.8,3.9-3.8,6-6c0.5-0.5,1-1,1.5-1.5
						c-9.7,19.4-17.6,46.7,8,49.9c28,3.8,62.7-33.8,76.2-47.6c2.6-2.6,1.8-7.1-2.6-2.6c-7.9,8.2-34.7,32.6-54.2,40
						c-53.6,20,14.7-71.2,20.3-78.5C670.6,152.1,698.9,124.5,707.4,110.7z"/>
				</g>
			</g>
		</g>
		<g id="highlight">
			<g>
				<path fill="#FFFFFF" d="M608.8,210.4c-0.1,0.1-0.3,0.3-0.4,0.4c-4.2,9.1-7.6,19.4-7.3,28c0.3-9.4,4.5-20.6,9.2-29.9
					C609.8,209.4,609.3,209.9,608.8,210.4z"/>
				<path fill="#FFFFFF" d="M528.3,204.2c-4.2,9.1-7.6,19.4-7.3,28c0.3-9.5,4.6-20.7,9.2-30C529.6,202.9,529,203.6,528.3,204.2z"/>
				<path fill="#FFFFFF" d="M658.7,109.4c0.1-0.2,0.3-0.3,0.5-0.5c9.1-7.1,28.8-14.7,39.7-15c8.2,0,11.9,2.7,12.3,7
					c0.5-5.4-2.9-9-12.3-9c-10.9,0.3-30.6,7.9-39.7,15C657.7,108.2,657.7,109.2,658.7,109.4z"/>
				<path fill="#FFFFFF" d="M691.8,206.5c-7.9,8.2-34.7,32.6-54.2,40c-14.2,5.3-19.8,2.8-20.3-3.9c-0.5,8.1,4.8,11.7,20.3,5.9
					c19.4-7.4,46.2-31.8,54.2-40c2.1-2.1,3.5-2.2,3.9-1.4C696.5,204.9,695.2,203.2,691.8,206.5z"/>
				<path fill="#FFFFFF" d="M515,211.3c8.8-7.1,20.3-19.7,29.7-32.3c11.5-15,33.3-45.3,45.6-66.8c1.3-2.5,3.2-7.3,2.8-10.1
					c-0.3,2.7-1.7,6.1-2.8,8.1c-12.4,21.5-34.1,51.8-45.6,66.8c-9.4,12.6-20.9,25.3-29.7,32.3c-1.9,1.6-2.2,3-1.5,3.7
					C513.7,212.5,514.2,212,515,211.3z"/>
				<path fill="#FFFFFF" d="M578.6,102.8c0.1-0.2,0.3-0.3,0.5-0.5c9.1-7.1,28.8-14.7,39.7-15c8.2,0,11.9,2.7,12.3,7
					c0.5-5.4-2.9-9-12.3-9c-10.9,0.3-30.6,7.9-39.7,15C577.7,101.7,577.7,102.7,578.6,102.8z"/>
				<path fill="#FFFFFF" d="M670.3,118.8c1.3-2.5,3.2-7.3,2.8-10.1c-0.3,2.7-1.7,6.1-2.8,8.1c-12.4,21.5-34.1,51.8-45.6,66.8
					c-5.5,7.4-11.7,14.8-17.7,21c-11.1,10.5-32.9,29.1-49.4,35.3c-14.2,5.3-19.8,2.8-20.3-3.9c-0.5,8.1,4.8,11.7,20.3,5.9
					c16.5-6.3,38.3-24.8,49.4-35.3c6-6.3,12.2-13.6,17.7-21C636.2,170.6,658,140.3,670.3,118.8z"/>
			</g>
			<g>
				<path fill="#FFFFFF" d="M461.8,228.8c-8.9,7.6-17.3,11.7-18.4,8c-1.3,6.7,8.2,2.6,18.4-6c15.9-14.4,38.6-42.1,52.1-62.3
					c4.4-10.3,10.3-22.1,16.5-23.8c7.6-2.3,12.7,1.7,13.5,5.5c1-4.1-4.5-10.2-13.5-7.5c-6.2,1.8-12.1,13.5-16.5,23.8
					C500.4,186.7,477.7,214.3,461.8,228.8z"/>
				<path fill="#FFFFFF" d="M454,175.9c-0.3,1.5-1.3,3.3-3,5.2c-9.4,10.9-25.9,29.7-30,41.8c-1.6,4.8-2.2,9-2.1,12.4
					c0.1-3,0.8-6.4,2.1-10.4c4.1-12.1,20.6-30.9,30-41.8C453.5,180.2,454.4,177.6,454,175.9z"/>
				<path fill="#FFFFFF" d="M400.3,210.2c11.8-9.7,26.8-27.3,38-35.9c15.4-11.9,33.9-7.1,34.6,8c0.9-16.6-18.5-22.4-34.6-10
					c-11.2,8.5-26.2,26.2-38,35.9c-1.9,1.6-2.4,3.5-1.8,4.3C398.9,211.7,399.4,210.9,400.3,210.2z"/>
				<path fill="#FFFFFF" d="M322.5,286.7c0.5-1.6,2.6-0.9,2.8,1.1c4.1,22.1,23.3,37.1,45.3,37.1c30.6,0,63-26.5,88.9-61.8
					c18.2-25,33-52.6,47.1-80c-1.4,2.2-2.9,4.3-4.4,6.5c-12.8,24.5-26.3,49.1-42.7,71.5c-25.9,35.3-58.3,61.8-88.9,61.8
					c-22.1,0-41.2-15-45.3-37.1c-0.3-2.4-3.2-2.9-2.9,0.3C322.4,286.3,322.4,286.5,322.5,286.7z"/>
			</g>
			<g>
				<path fill="#FFFFFF" d="M267.6,208.3c-10.3,5.3-22.7,8.2-27.7,8.2c-4.7,0-5.3,1.5-2.8,2.2c0.7-0.2,1.6-0.2,2.8-0.2
					c5,0,17.4-2.9,27.7-8.2c11.9-6.5,16.2-13.6,15.6-18.8C282.6,196.4,278,202.6,267.6,208.3z"/>
				<path fill="#FFFFFF" d="M311.6,212.5c-5.5,14.9-8.8,28.7-8.6,40c0.3-11.7,3.9-26,9.8-41.2C312.4,211.7,312,212.1,311.6,212.5z"
					/>
				<path fill="#FFFFFF" d="M223.9,237c-0.4,9.5,4.7,16.4,15.1,16.2c16.6-0.2,43.3-19.9,60.3-34.5c0.5-0.6,1.1-1.2,1.8-1.9
					c6.2-5.3,11.2-12.1,18-20.3c19.7-43.5,42.4-77,77.1-109.1c34.5-31.7,63.2-26.8,64.2-6.7c0.9-21.8-28.6-28-64.2,4.7
					c-34.7,32.1-57.4,65.6-77.1,109.1c-6.8,8.2-11.8,15-18,20.3c-0.7,0.6-1.3,1.3-1.8,1.9c-17,14.6-43.7,34.2-60.3,34.5
					C229.3,251.4,224.3,245.5,223.9,237z"/>
				<path fill="#FFFFFF" d="M377.6,153.4c-3.2,1.4-3.7,3-2.7,3.8c0.5-0.6,1.4-1.2,2.7-1.8c18.2-8.2,44.7-27.3,58.9-42.1
					c12.6-13.3,17.6-22.5,16.8-27.2c-0.6,5.1-5.8,13.6-16.8,25.2C422.3,126,395.8,145.2,377.6,153.4z"/>
				<path fill="#FFFFFF" d="M374.1,203c7.6-5.8,10.8-12.9,10.4-18.4c-0.4,5.1-3.7,11.3-10.4,16.4c-11.2,8.5-33.3,15-40.3,10.9
					l-1.5-0.9c-0.6-1-1.2-2.1-1.8-3.1c-0.2,0.2-0.4,0.5-0.6,0.7c0.6,1.5,1.5,2.9,2.4,4.4l1.5,0.9C340.8,218,362.9,211.6,374.1,203z"
					/>
				<path fill="#FFFFFF" d="M397.3,234.5c0,5-5,8.3-10.6,9.1c-12.5,1.9-36.5-11.7-49.6-26.6c-0.8-0.2-1.5-0.4-2.2-0.6
					c12.4,15.9,38.6,31.4,51.8,29.4c5.6-0.9,10.6-4.5,10.6-8.9c0-0.6,1-0.9,1.3-0.5c0.1-0.5,0.1-0.9,0.1-1.9H397.3z"/>
				<path fill="#FFFFFF" d="M269.3,175c14.2,0.4,21.3,6.1,21.9,13.5c0.6-8.3-6.4-15-21.9-15.5c-32.7-1.2-71.8,26.8-71.5,61.8
					c0,0.1,0,0.2,0,0.4C198.7,200.9,237.2,173.8,269.3,175z"/>
				<path fill="#FFFFFF" d="M373.8,164.9c-10.8,4.4-23.3,13.2-36.5,28.8c-2.1,3.3-4.1,6.4-5.9,9.4c15.3-20.3,30-31.2,42.4-36.2
					c17.7-6.8,30.8-1,31.6,9.8C406.1,164.5,392.5,157.7,373.8,164.9z"/>
				<path fill="#FFFFFF" d="M311.8,260.2c-0.1,7,1,12.5,3.6,15.6c0.5-0.3,0.8-0.9,0.1-1.9C313.1,271.2,312,266.3,311.8,260.2z"/>
			</g>
			<g>
				<path fill="#FFFFFF" d="M183,171.4c0.5-0.5,1.1-0.9,1.6-0.9c3.5-0.3,9.7,1.2,12.1,10.3c0.5,2.2,0.8,4.7,0.9,7.2
					c0-3.3-0.2-6.4-0.9-9.2c-2.4-9.1-8.5-10.6-12.1-10.3C183.5,168.5,181.5,170.5,183,171.4z"/>
				<path fill="#FFFFFF" d="M5.4,286.3c0.6-1.3,2.6-0.6,2.9,1.3c4.1,22.1,23,37.1,45,37.1c27.7,0,68-33.8,94.5-70.6
					c6.8-9.1,24.4-35.3,33.6-55.6c-0.7,0.9-1.4,1.7-2.2,2.6c-9.5,19.5-25.1,42.6-31.4,51c-26.5,36.8-66.8,70.6-94.5,70.6
					c-22.1,0-40.9-15-45-37.1c-0.3-2.4-3.5-2.9-2.9,0.3C5.4,286,5.4,286.1,5.4,286.3z"/>
				<path fill="#FFFFFF" d="M163.7,209.9c5.9-4.7,20.9-18.5,23-30.6c0-0.5,0-1-0.1-1.4c-2.4,11.9-17,25.4-22.8,30
					c-0.6,0.6-0.6,1.6-0.3,2.4C163.5,210.2,163.6,210,163.7,209.9z"/>
			</g>
			<path fill="#FFFFFF" d="M199.6,141.7c5.3-6.2,13.2-8.2,17.7-4.7c1.6,1.3,2.5,3.2,2.8,5.4c0.2-3-0.6-5.7-2.8-7.4
				c-4.4-3.5-12.4-1.5-17.7,4.7c-3.5,3.9-5.2,8.4-4.8,12C195.1,148.5,196.7,144.9,199.6,141.7z"/>
		</g>
	</g>
</g>
<g id="logo-bg-light" display="none">
	<g id="test-tube_1_" display="inline">
		<path id="shadow_1_" opacity="0.1" d="M749.4,8.9c-0.2,0.6-0.2,1.3,0,1.9c0,0,2.1,13.7-0.3,19.8l-99.7,259.2l0,0
			c-7.1,19,2.4,40.3,21.4,47.6c19,7.3,40.3-2.1,47.8-21l0,0l99.7-259.2c1.9-5.1,13.1-14.9,13.1-14.9c0.6-0.4,1-0.9,1.3-1.5l0-0.1
			c0.1-0.1,0.1-0.2,0.2-0.3c2.6-6.7-14-19.3-37-28.1c-23-8.9-43.8-10.6-46.3-3.9c0,0.1-0.1,0.2-0.1,0.3L749.4,8.9z"/>
		
			<linearGradient id="tube_4_" gradientUnits="userSpaceOnUse" x1="671.5791" y1="264.2074" x2="734.7349" y2="327.3633" gradientTransform="matrix(0.9138 -0.4062 0.4062 0.9138 -32.1957 188.0096)">
			<stop  offset="0" style="stop-color:#919191"/>
			<stop  offset="1" style="stop-color:#FFFFFF"/>
		</linearGradient>
		<path id="tube_1_" fill="url(#tube_4_)" d="M746.5,6.7c-0.2,0.6-0.2,1.3,0,1.9c0,0,2.1,13.7-0.3,19.8l-99.7,259.2l0,0
			c-7.1,19,2.4,40.3,21.4,47.6c19,7.3,40.3-2.1,47.8-21l0,0l99.7-259.2c1.9-5.1,13.1-14.9,13.1-14.9c0.6-0.4,1-0.9,1.3-1.5l0-0.1
			c0.1-0.1,0.1-0.2,0.2-0.3c2.6-6.7-14-19.3-37-28.1c-23-8.9-43.8-10.6-46.3-3.9c0,0.1-0.1,0.2-0.1,0.3L746.5,6.7z"/>
		
			<linearGradient id="liquid_3_" gradientUnits="userSpaceOnUse" x1="647.8314" y1="312.3866" x2="686.066" y2="350.6212" gradientTransform="matrix(0.9138 -0.4062 0.4062 0.9138 -32.1957 188.0096)">
			<stop  offset="0" style="stop-color:#990000"/>
			<stop  offset="1" style="stop-color:#E80000"/>
		</linearGradient>
		<path id="liquid_1_" fill="url(#liquid_3_)" d="M777.8,123.9l-71.9,186.9l0,0c-5.3,13.4-20.7,20.4-34.4,15.1
			c-13.7-5.3-21.1-21-16.1-34.5l0,0L701.4,172c0,0,5.7-9.3,17-15.8c11.3-6.6,20.6-5.2,33.1-10.8C764,139.9,777.8,123.9,777.8,123.9z
			"/>
		
			<ellipse id="top_1_" transform="matrix(0.9334 0.359 -0.359 0.9334 60.7525 -281.3684)" fill="#333333" cx="788.1" cy="22.9" rx="27.7" ry="7.3"/>
		<path id="side-reflection_1_" opacity="0.3" fill="#FFFFFF" d="M746.5,8.6c0,0,2,13.8-0.3,19.8l-99.7,259.2l0,0
			c-7.1,19,2.4,40.3,21.4,47.6c3.3,1.3,6.7,2,10,2.3c-12.8-9.6-18.3-26.9-12.4-42.6l0,0l97.7-254C763.3,40.9,750,28.4,746.5,8.6z"/>
		<g id="bubbles_1_">
			<circle opacity="0.5" fill="#FFFFFF" cx="714.4" cy="175.8" r="2.9"/>
			<circle opacity="0.5" fill="#FFFFFF" cx="733.3" cy="196.7" r="4.4"/>
			<circle opacity="0.5" fill="#FFFFFF" cx="704.4" cy="221.6" r="8.2"/>
			<circle opacity="0.5" fill="#FFFFFF" cx="691.2" cy="236.8" r="4.4"/>
			<circle opacity="0.5" fill="#FFFFFF" cx="708.6" cy="269.1" r="2.9"/>
		</g>
	</g>
	<g id="jekyll-text_1_" display="inline">
		<g opacity="0.1">
			<g>
				<path d="M200.4,159.9c4.4,3.5,12.4,1.5,17.7-4.4c5.6-6.2,6.5-14.1,2.1-17.6c-4.4-3.5-12.4-1.5-17.7,4.7
					C196.9,148.7,196,156.3,200.4,159.9z M187.4,171.3c-1.2,0-3.2,2.1-1.5,2.9c2.4,0.9,3.5,2.9,3.5,5.9c-2.1,12.1-17.1,25.9-23,30.6
					c-1.5,1.5,0.6,4.7,2.1,3.5c3.2-2.6,10-7.9,15.6-15c-9.1,20.3-26.8,46.5-33.6,55.6c-26.5,36.8-66.8,70.6-94.5,70.6
					c-22.1,0-40.9-15-45-37.1c-0.3-2.4-3.5-2.9-2.9,0.3c5,30.3,28.3,42.1,56.5,42.1c30.9,0,67.2-22.4,87.1-45.3
					c32.3-37.1,53.3-79.7,47.7-103.8C197.1,172.5,191,171.1,187.4,171.3z M386,252c8.5-2.1,15.6-6.8,15.6-14.2c0-0.7-1.5-0.7-1.5,0
					c0,4.4-5,8-10.6,8.9c-13.2,2.1-39.4-13.5-51.8-29.4c13.2,5,40.3-2.3,53-11.4c11.8-8.5,16.5-17.9,17.4-25.6
					c1.5-12.6-12.4-20-31.5-12.6c-12.4,5-27.1,15.9-42.4,36.2c16.2-26.8,48-70.3,79.2-98.2c38-33.8,60-27.3,25.9,8.5
					c-14.1,14.7-40.6,33.8-58.9,42.1c-5.6,2.4-2.9,5.6,1.2,3.8c19.4-8.5,45.3-26.2,60.9-40.9c46.2-44.4,7.7-77.9-43.6-30.9
					c-34.7,32.1-57.4,65.6-77.1,109.1c-6.8,8.2-11.8,15-18,20.3c-0.7,0.6-1.3,1.3-1.8,1.9c-17,14.6-43.7,34.2-60.3,34.5
					c-11.8,0.3-16.8-8.5-14.7-20c3.2-17.9,21.8-39.1,37.7-46.5c20.6-9.4,32.7,8.8,5.6,23.5c-10.3,5.3-22.7,8.2-27.7,8.2
					c-5.9,0-5.3,2.4-0.3,2.6c8.2,0.3,21.5-3.2,30.3-7.4c27.7-13.2,29.4-37.9-0.6-38.8c-32.7-1.2-71.8,26.8-71.5,61.8
					c0.3,15.9,13,24.4,30.3,24.4c28.9-0.3,54.7-22.3,75.8-41.6c3-2.5,6-5.3,8.9-8.2c-7.4,18.8-11.2,36.2-9.4,49.1
					c1.2,9.4,6.5,13.8,10.6,17.3c0.9,0.6,2.6,0,1.5-1.8c-6.2-7.4-4.4-29.2,4.1-50.3C329.5,240.6,357.2,258.4,386,252z M351.3,190.6
					c33.8-30.3,47.1-3.2,25.6,13.2c-11.2,8.5-33.3,15-40.3,10.9l-1.5-0.9c-0.9-1.5-1.8-2.9-2.4-4.4
					C338.3,202.7,344.8,196.5,351.3,190.6z M539.1,156.3c13.5,1.5,7.9-15-5.9-10.9c-6.2,1.8-12.1,13.5-16.5,23.8
					c-13.5,20.3-36.2,47.9-52.1,62.3c-14.1,12.1-27.1,15.3-11.2-7.4c6.5-9.1,14.7-18.8,19.4-28.5c11.2-24.4-12.7-35.3-31.8-20.6
					c-11.2,8.5-26.2,26.2-38,35.9c-3.2,2.6-2.4,6.5,0.9,3.8c9.4-7.6,25.9-25,40-35.3c11.8-9.1,16.5-3.2,9.7,4.4
					c-9.4,10.9-25.9,29.7-30,41.8c-5.9,17.9,1.2,25.9,12.9,25.9c16.2,0,40.3-25.3,56.5-45.3c5.3-6.8,11.2-14.7,16.2-22.3
					c-14.1,27.3-28.8,55-47.1,80c-25.9,35.3-58.3,61.8-88.9,61.8c-22.1,0-41.2-15-45.3-37.1c-0.3-2.4-3.2-2.9-2.9,0.3
					c5,30.3,28.3,42.1,56.5,42.1c30.9,0,60.6-17.9,81.5-40c42.1-44.4,47.1-94.4,60-122.3C529.1,156.3,534.7,155.7,539.1,156.3z
					 M710.2,113.5c6.2-10.6,5.9-18.8-8.5-18.8c-10.9,0.3-30.6,7.9-39.7,15c-2.1,2.1-1.2,3.2,1.5,2.1c1.8-0.6,3.8-1.8,5.9-2.6
					c10.3-5.6,6.2,6.2,3.8,10.6c-12.4,21.5-34.1,51.8-45.6,66.8c-5.5,7.4-11.7,14.8-17.7,21c-11.1,10.5-32.9,29.1-49.4,35.3
					c-53.6,20,14.7-71.2,20.3-78.5c12.7-15.9,40.9-43.5,49.4-57.3c6.2-10.6,5.9-18.8-8.5-18.8c-10.9,0.3-30.6,7.9-39.7,15
					c-2.1,2.1-1.2,3.2,1.5,2.1c1.8-0.6,3.8-1.8,5.9-2.6c10.3-5.6,6.2,6.2,3.8,10.6c-12.4,21.5-34.1,51.8-45.6,66.8
					c-9.4,12.6-20.9,25.3-29.7,32.3c-3.5,2.9-1.5,5.6,2.1,3.2c3.2-2.1,7.9-6.8,13.2-12.4c-9.7,19.4-17.7,46.8,7.9,50
					c21.8,3,47.8-19.3,64.5-35.8c1.8-1.8,3.9-3.8,6-6c0.5-0.5,1-1,1.5-1.5c-9.7,19.4-17.6,46.7,8,49.9c28,3.8,62.7-33.8,76.2-47.6
					c2.6-2.6,1.8-7.1-2.6-2.6c-7.9,8.2-34.7,32.6-54.2,40c-53.6,20,14.7-71.2,20.3-78.5C673.4,154.9,701.7,127.3,710.2,113.5z"/>
			</g>
		</g>
		<g>
			<g>
				<g>
					<linearGradient id="SVGID_3_" gradientUnits="userSpaceOnUse" x1="358.2588" y1="328.147" x2="358.2588" y2="62.6751">
						<stop  offset="0" style="stop-color:#1A1A1A"/>
						<stop  offset="0.4026" style="stop-color:#4A4A4C"/>
						<stop  offset="1" style="stop-color:#333333"/>
					</linearGradient>
					<path fill="url(#SVGID_3_)" d="M197.6,157.1c4.4,3.5,12.4,1.5,17.7-4.4c5.6-6.2,6.5-14.1,2.1-17.6c-4.4-3.5-12.4-1.5-17.7,4.7
						C194,145.9,193.1,153.5,197.6,157.1z M184.6,168.5c-1.2,0-3.2,2.1-1.5,2.9c2.4,0.9,3.5,2.9,3.5,5.9
						c-2.1,12.1-17.1,25.9-23,30.6c-1.5,1.5,0.6,4.7,2.1,3.5c3.2-2.6,10-7.9,15.6-15c-9.1,20.3-26.8,46.5-33.6,55.6
						c-26.5,36.8-66.8,70.6-94.5,70.6c-22.1,0-40.9-15-45-37.1c-0.3-2.4-3.5-2.9-2.9,0.3c5,30.3,28.3,42,56.5,42
						c30.9,0,67.2-22.4,87.1-45.3c32.3-37.1,53.3-79.7,47.7-103.8C194.3,169.7,188.1,168.2,184.6,168.5z M383.2,249.2
						c8.5-2.1,15.6-6.8,15.6-14.2c0-0.7-1.5-0.7-1.5,0c0,4.4-5,8-10.6,8.9c-13.2,2.1-39.4-13.5-51.8-29.4c13.2,5,40.3-2.3,53-11.4
						c11.8-8.5,16.5-17.9,17.4-25.6c1.5-12.6-12.4-20-31.5-12.6c-12.4,5-27.1,15.9-42.4,36.2c16.2-26.8,48-70.3,79.2-98.2
						c38-33.8,60-27.3,25.9,8.5c-14.1,14.7-40.6,33.8-58.9,42.1c-5.6,2.4-2.9,5.6,1.2,3.8c19.4-8.5,45.3-26.2,60.9-40.9
						c46.2-44.4,7.7-77.9-43.6-30.9c-34.7,32.1-57.4,65.6-77.1,109.1c-6.8,8.2-11.8,15-18,20.3c-0.7,0.6-1.3,1.3-1.8,1.9
						c-17,14.6-43.7,34.2-60.3,34.5c-11.8,0.3-16.8-8.5-14.7-20c3.2-17.9,21.8-39.1,37.7-46.5c20.6-9.4,32.7,8.8,5.6,23.5
						c-10.3,5.3-22.7,8.2-27.7,8.2c-5.9,0-5.3,2.4-0.3,2.6c8.2,0.3,21.5-3.2,30.3-7.4c27.7-13.2,29.4-37.9-0.6-38.8
						c-32.7-1.2-71.8,26.8-71.5,61.8c0.3,15.9,13,24.4,30.3,24.4c28.9-0.3,54.7-22.3,75.8-41.6c3-2.5,6-5.3,8.9-8.2
						c-7.4,18.8-11.2,36.2-9.4,49.1c1.2,9.4,6.5,13.8,10.6,17.3c0.9,0.6,2.6,0,1.5-1.8c-6.2-7.4-4.4-29.2,4.1-50.3
						C326.7,237.7,354.3,255.6,383.2,249.2z M348.5,187.8c33.8-30.3,47.1-3.2,25.6,13.2c-11.2,8.5-33.3,15-40.3,10.9l-1.5-0.9
						c-0.9-1.5-1.8-2.9-2.4-4.4C335.5,199.9,342,193.7,348.5,187.8z M536.3,153.5c13.5,1.5,7.9-15-5.9-10.9
						c-6.2,1.8-12.1,13.5-16.5,23.8c-13.5,20.3-36.2,47.9-52.1,62.3c-14.1,12.1-27.1,15.3-11.2-7.4c6.5-9.1,14.7-18.8,19.4-28.5
						c11.2-24.4-12.7-35.3-31.8-20.6c-11.2,8.5-26.2,26.2-38,35.9c-3.2,2.6-2.4,6.5,0.9,3.8c9.4-7.6,25.9-25,40-35.3
						c11.8-9.1,16.5-3.2,9.7,4.4c-9.4,10.9-25.9,29.7-30,41.8c-5.9,17.9,1.2,25.9,12.9,25.9c16.2,0,40.3-25.3,56.5-45.3
						c5.3-6.8,11.2-14.7,16.2-22.3c-14.1,27.3-28.8,55-47.1,80c-25.9,35.3-58.3,61.8-88.9,61.8c-22.1,0-41.2-15-45.3-37.1
						c-0.3-2.4-3.2-2.9-2.9,0.3c5,30.3,28.3,42,56.5,42c30.9,0,60.6-17.9,81.5-40c42.1-44.4,47.1-94.4,60-122.3
						C526.3,153.5,531.9,152.9,536.3,153.5z M707.4,110.7c6.2-10.6,5.9-18.8-8.5-18.8c-10.9,0.3-30.6,7.9-39.7,15
						c-2.1,2.1-1.2,3.2,1.5,2.1c1.8-0.6,3.8-1.8,5.9-2.6c10.3-5.6,6.2,6.2,3.8,10.6c-12.4,21.5-34.1,51.8-45.6,66.8
						c-5.5,7.4-11.7,14.8-17.7,21c-11.1,10.5-32.9,29.1-49.4,35.3c-53.6,20,14.7-71.2,20.3-78.5c12.7-15.9,40.9-43.5,49.4-57.3
						c6.2-10.6,5.9-18.8-8.5-18.8c-10.9,0.3-30.6,7.9-39.7,15c-2.1,2.1-1.2,3.2,1.5,2.1c1.8-0.6,3.8-1.8,5.9-2.6
						c10.3-5.6,6.2,6.2,3.8,10.6c-12.4,21.5-34.1,51.8-45.6,66.8c-9.4,12.6-20.9,25.3-29.7,32.3c-3.5,2.9-1.5,5.6,2.1,3.2
						c3.2-2.1,7.9-6.8,13.2-12.4c-9.7,19.4-17.7,46.8,7.9,50c21.8,3,47.8-19.3,64.5-35.8c1.8-1.8,3.9-3.8,6-6c0.5-0.5,1-1,1.5-1.5
						c-9.7,19.4-17.6,46.7,8,49.9c28,3.8,62.7-33.8,76.2-47.6c2.6-2.6,1.8-7.1-2.6-2.6c-7.9,8.2-34.7,32.6-54.2,40
						c-53.6,20,14.7-71.2,20.3-78.5C670.6,152.1,698.9,124.5,707.4,110.7z"/>
				</g>
			</g>
			<defs>
				<filter id="Adobe_OpacityMaskFilter_1_" filterUnits="userSpaceOnUse" x="5.3" y="62.7" width="705.9" height="265.5">
					
						<feColorMatrix  type="matrix" values="-1 0 0 0 1  0 -1 0 0 1  0 0 -1 0 1  0 0 0 1 0" color-interpolation-filters="sRGB" result="source"/>
				</filter>
			</defs>
			<mask maskUnits="userSpaceOnUse" x="5.3" y="62.7" width="705.9" height="265.5" id="SVGID_4_">
				<g filter="url(#Adobe_OpacityMaskFilter_1_)">
					
						<image overflow="visible" width="711" height="270" xlink:href="DF14084F466B355F.jpg"  transform="matrix(1 0 0 1 3 60.5113)">
					</image>
				</g>
			</mask>
			<g opacity="0.75" mask="url(#SVGID_4_)">
				<g>
					<path fill="#FFFFFF" d="M197.6,157.1c4.4,3.5,12.4,1.5,17.7-4.4c5.6-6.2,6.5-14.1,2.1-17.6c-4.4-3.5-12.4-1.5-17.7,4.7
						C194,145.9,193.1,153.5,197.6,157.1z M184.6,168.5c-1.2,0-3.2,2.1-1.5,2.9c2.4,0.9,3.5,2.9,3.5,5.9
						c-2.1,12.1-17.1,25.9-23,30.6c-1.5,1.5,0.6,4.7,2.1,3.5c3.2-2.6,10-7.9,15.6-15c-9.1,20.3-26.8,46.5-33.6,55.6
						c-26.5,36.8-66.8,70.6-94.5,70.6c-22.1,0-40.9-15-45-37.1c-0.3-2.4-3.5-2.9-2.9,0.3c5,30.3,28.3,42,56.5,42
						c30.9,0,67.2-22.4,87.1-45.3c32.3-37.1,53.3-79.7,47.7-103.8C194.3,169.7,188.1,168.2,184.6,168.5z M383.2,249.2
						c8.5-2.1,15.6-6.8,15.6-14.2c0-0.7-1.5-0.7-1.5,0c0,4.4-5,8-10.6,8.9c-13.2,2.1-39.4-13.5-51.8-29.4c13.2,5,40.3-2.3,53-11.4
						c11.8-8.5,16.5-17.9,17.4-25.6c1.5-12.6-12.4-20-31.5-12.6c-12.4,5-27.1,15.9-42.4,36.2c16.2-26.8,48-70.3,79.2-98.2
						c38-33.8,60-27.3,25.9,8.5c-14.1,14.7-40.6,33.8-58.9,42.1c-5.6,2.4-2.9,5.6,1.2,3.8c19.4-8.5,45.3-26.2,60.9-40.9
						c46.2-44.4,7.7-77.9-43.6-30.9c-34.7,32.1-57.4,65.6-77.1,109.1c-6.8,8.2-11.8,15-18,20.3c-0.7,0.6-1.3,1.3-1.8,1.9
						c-17,14.6-43.7,34.2-60.3,34.5c-11.8,0.3-16.8-8.5-14.7-20c3.2-17.9,21.8-39.1,37.7-46.5c20.6-9.4,32.7,8.8,5.6,23.5
						c-10.3,5.3-22.7,8.2-27.7,8.2c-5.9,0-5.3,2.4-0.3,2.6c8.2,0.3,21.5-3.2,30.3-7.4c27.7-13.2,29.4-37.9-0.6-38.8
						c-32.7-1.2-71.8,26.8-71.5,61.8c0.3,15.9,13,24.4,30.3,24.4c28.9-0.3,54.7-22.3,75.8-41.6c3-2.5,6-5.3,8.9-8.2
						c-7.4,18.8-11.2,36.2-9.4,49.1c1.2,9.4,6.5,13.8,10.6,17.3c0.9,0.6,2.6,0,1.5-1.8c-6.2-7.4-4.4-29.2,4.1-50.3
						C326.7,237.7,354.3,255.6,383.2,249.2z M348.5,187.8c33.8-30.3,47.1-3.2,25.6,13.2c-11.2,8.5-33.3,15-40.3,10.9l-1.5-0.9
						c-0.9-1.5-1.8-2.9-2.4-4.4C335.5,199.9,342,193.7,348.5,187.8z M536.3,153.5c13.5,1.5,7.9-15-5.9-10.9
						c-6.2,1.8-12.1,13.5-16.5,23.8c-13.5,20.3-36.2,47.9-52.1,62.3c-14.1,12.1-27.1,15.3-11.2-7.4c6.5-9.1,14.7-18.8,19.4-28.5
						c11.2-24.4-12.7-35.3-31.8-20.6c-11.2,8.5-26.2,26.2-38,35.9c-3.2,2.6-2.4,6.5,0.9,3.8c9.4-7.6,25.9-25,40-35.3
						c11.8-9.1,16.5-3.2,9.7,4.4c-9.4,10.9-25.9,29.7-30,41.8c-5.9,17.9,1.2,25.9,12.9,25.9c16.2,0,40.3-25.3,56.5-45.3
						c5.3-6.8,11.2-14.7,16.2-22.3c-14.1,27.3-28.8,55-47.1,80c-25.9,35.3-58.3,61.8-88.9,61.8c-22.1,0-41.2-15-45.3-37.1
						c-0.3-2.4-3.2-2.9-2.9,0.3c5,30.3,28.3,42,56.5,42c30.9,0,60.6-17.9,81.5-40c42.1-44.4,47.1-94.4,60-122.3
						C526.3,153.5,531.9,152.9,536.3,153.5z M707.4,110.7c6.2-10.6,5.9-18.8-8.5-18.8c-10.9,0.3-30.6,7.9-39.7,15
						c-2.1,2.1-1.2,3.2,1.5,2.1c1.8-0.6,3.8-1.8,5.9-2.6c10.3-5.6,6.2,6.2,3.8,10.6c-12.4,21.5-34.1,51.8-45.6,66.8
						c-5.5,7.4-11.7,14.8-17.7,21c-11.1,10.5-32.9,29.1-49.4,35.3c-53.6,20,14.7-71.2,20.3-78.5c12.7-15.9,40.9-43.5,49.4-57.3
						c6.2-10.6,5.9-18.8-8.5-18.8c-10.9,0.3-30.6,7.9-39.7,15c-2.1,2.1-1.2,3.2,1.5,2.1c1.8-0.6,3.8-1.8,5.9-2.6
						c10.3-5.6,6.2,6.2,3.8,10.6c-12.4,21.5-34.1,51.8-45.6,66.8c-9.4,12.6-20.9,25.3-29.7,32.3c-3.5,2.9-1.5,5.6,2.1,3.2
						c3.2-2.1,7.9-6.8,13.2-12.4c-9.7,19.4-17.7,46.8,7.9,50c21.8,3,47.8-19.3,64.5-35.8c1.8-1.8,3.9-3.8,6-6c0.5-0.5,1-1,1.5-1.5
						c-9.7,19.4-17.6,46.7,8,49.9c28,3.8,62.7-33.8,76.2-47.6c2.6-2.6,1.8-7.1-2.6-2.6c-7.9,8.2-34.7,32.6-54.2,40
						c-53.6,20,14.7-71.2,20.3-78.5C670.6,152.1,698.9,124.5,707.4,110.7z"/>
				</g>
			</g>
		</g>
		<g id="highlight_1_" display="none" opacity="0.3">
			<g display="inline">
				<path fill="#FFFFFF" d="M608.8,210.4c-0.1,0.1-0.3,0.3-0.4,0.4c-4.2,9.1-7.6,19.4-7.3,28c0.3-9.4,4.5-20.6,9.2-29.9
					C609.8,209.4,609.3,209.9,608.8,210.4z"/>
				<path fill="#FFFFFF" d="M528.3,204.2c-4.2,9.1-7.6,19.4-7.3,28c0.3-9.5,4.6-20.7,9.2-30C529.6,202.9,529,203.6,528.3,204.2z"/>
				<path fill="#FFFFFF" d="M658.7,109.4c0.1-0.2,0.3-0.3,0.5-0.5c9.1-7.1,28.8-14.7,39.7-15c8.2,0,11.9,2.7,12.3,7
					c0.5-5.4-2.9-9-12.3-9c-10.9,0.3-30.6,7.9-39.7,15C657.7,108.2,657.7,109.2,658.7,109.4z"/>
				<path fill="#FFFFFF" d="M691.8,206.5c-7.9,8.2-34.7,32.6-54.2,40c-14.2,5.3-19.8,2.8-20.3-3.9c-0.5,8.1,4.8,11.7,20.3,5.9
					c19.4-7.4,46.2-31.8,54.2-40c2.1-2.1,3.5-2.2,3.9-1.4C696.5,204.9,695.2,203.2,691.8,206.5z"/>
				<path fill="#FFFFFF" d="M515,211.3c8.8-7.1,20.3-19.7,29.7-32.3c11.5-15,33.3-45.3,45.6-66.8c1.3-2.5,3.2-7.3,2.8-10.1
					c-0.3,2.7-1.7,6.1-2.8,8.1c-12.4,21.5-34.1,51.8-45.6,66.8c-9.4,12.6-20.9,25.3-29.7,32.3c-1.9,1.6-2.2,3-1.5,3.7
					C513.7,212.5,514.2,212,515,211.3z"/>
				<path fill="#FFFFFF" d="M578.6,102.8c0.1-0.2,0.3-0.3,0.5-0.5c9.1-7.1,28.8-14.7,39.7-15c8.2,0,11.9,2.7,12.3,7
					c0.5-5.4-2.9-9-12.3-9c-10.9,0.3-30.6,7.9-39.7,15C577.7,101.7,577.7,102.7,578.6,102.8z"/>
				<path fill="#FFFFFF" d="M670.3,118.8c1.3-2.5,3.2-7.3,2.8-10.1c-0.3,2.7-1.7,6.1-2.8,8.1c-12.4,21.5-34.1,51.8-45.6,66.8
					c-5.5,7.4-11.7,14.8-17.7,21c-11.1,10.5-32.9,29.1-49.4,35.3c-14.2,5.3-19.8,2.8-20.3-3.9c-0.5,8.1,4.8,11.7,20.3,5.9
					c16.5-6.3,38.3-24.8,49.4-35.3c6-6.3,12.2-13.6,17.7-21C636.2,170.6,658,140.3,670.3,118.8z"/>
			</g>
			<g display="inline">
				<path fill="#FFFFFF" d="M461.8,228.8c-8.9,7.6-17.3,11.7-18.4,8c-1.3,6.7,8.2,2.6,18.4-6c15.9-14.4,38.6-42.1,52.1-62.3
					c4.4-10.3,10.3-22.1,16.5-23.8c7.6-2.3,12.7,1.7,13.5,5.5c1-4.1-4.5-10.2-13.5-7.5c-6.2,1.8-12.1,13.5-16.5,23.8
					C500.4,186.7,477.7,214.3,461.8,228.8z"/>
				<path fill="#FFFFFF" d="M454,175.9c-0.3,1.5-1.3,3.3-3,5.2c-9.4,10.9-25.9,29.7-30,41.8c-1.6,4.8-2.2,9-2.1,12.4
					c0.1-3,0.8-6.4,2.1-10.4c4.1-12.1,20.6-30.9,30-41.8C453.5,180.2,454.4,177.6,454,175.9z"/>
				<path fill="#FFFFFF" d="M400.3,210.2c11.8-9.7,26.8-27.3,38-35.9c15.4-11.9,33.9-7.1,34.6,8c0.9-16.6-18.5-22.4-34.6-10
					c-11.2,8.5-26.2,26.2-38,35.9c-1.9,1.6-2.4,3.5-1.8,4.3C398.9,211.7,399.4,210.9,400.3,210.2z"/>
				<path fill="#FFFFFF" d="M322.5,286.7c0.5-1.6,2.6-0.9,2.8,1.1c4.1,22.1,23.3,37.1,45.3,37.1c30.6,0,63-26.5,88.9-61.8
					c18.2-25,33-52.6,47.1-80c-1.4,2.2-2.9,4.3-4.4,6.5c-12.8,24.5-26.3,49.1-42.7,71.5c-25.9,35.3-58.3,61.8-88.9,61.8
					c-22.1,0-41.2-15-45.3-37.1c-0.3-2.4-3.2-2.9-2.9,0.3C322.4,286.3,322.4,286.5,322.5,286.7z"/>
			</g>
			<g display="inline">
				<path fill="#FFFFFF" d="M267.6,208.3c-10.3,5.3-22.7,8.2-27.7,8.2c-4.7,0-5.3,1.5-2.8,2.2c0.7-0.2,1.6-0.2,2.8-0.2
					c5,0,17.4-2.9,27.7-8.2c11.9-6.5,16.2-13.6,15.6-18.8C282.6,196.4,278,202.6,267.6,208.3z"/>
				<path fill="#FFFFFF" d="M311.6,212.5c-5.5,14.9-8.8,28.7-8.6,40c0.3-11.7,3.9-26,9.8-41.2C312.4,211.7,312,212.1,311.6,212.5z"
					/>
				<path fill="#FFFFFF" d="M223.9,237c-0.4,9.5,4.7,16.4,15.1,16.2c16.6-0.2,43.3-19.9,60.3-34.5c0.5-0.6,1.1-1.2,1.8-1.9
					c6.2-5.3,11.2-12.1,18-20.3c19.7-43.5,42.4-77,77.1-109.1c34.5-31.7,63.2-26.8,64.2-6.7c0.9-21.8-28.6-28-64.2,4.7
					c-34.7,32.1-57.4,65.6-77.1,109.1c-6.8,8.2-11.8,15-18,20.3c-0.7,0.6-1.3,1.3-1.8,1.9c-17,14.6-43.7,34.2-60.3,34.5
					C229.3,251.4,224.3,245.5,223.9,237z"/>
				<path fill="#FFFFFF" d="M377.6,153.4c-3.2,1.4-3.7,3-2.7,3.8c0.5-0.6,1.4-1.2,2.7-1.8c18.2-8.2,44.7-27.3,58.9-42.1
					c12.6-13.3,17.6-22.5,16.8-27.2c-0.6,5.1-5.8,13.6-16.8,25.2C422.3,126,395.8,145.2,377.6,153.4z"/>
				<path fill="#FFFFFF" d="M374.1,203c7.6-5.8,10.8-12.9,10.4-18.4c-0.4,5.1-3.7,11.3-10.4,16.4c-11.2,8.5-33.3,15-40.3,10.9
					l-1.5-0.9c-0.6-1-1.2-2.1-1.8-3.1c-0.2,0.2-0.4,0.5-0.6,0.7c0.6,1.5,1.5,2.9,2.4,4.4l1.5,0.9C340.8,218,362.9,211.6,374.1,203z"
					/>
				<path fill="#FFFFFF" d="M397.3,234.5c0,5-5,8.3-10.6,9.1c-12.5,1.9-36.5-11.7-49.6-26.6c-0.8-0.2-1.5-0.4-2.2-0.6
					c12.4,15.9,38.6,31.4,51.8,29.4c5.6-0.9,10.6-4.5,10.6-8.9c0-0.6,1-0.9,1.3-0.5c0.1-0.5,0.1-0.9,0.1-1.9H397.3z"/>
				<path fill="#FFFFFF" d="M269.3,175c14.2,0.4,21.3,6.1,21.9,13.5c0.6-8.3-6.4-15-21.9-15.5c-32.7-1.2-71.8,26.8-71.5,61.8
					c0,0.1,0,0.2,0,0.4C198.7,200.9,237.2,173.8,269.3,175z"/>
				<path fill="#FFFFFF" d="M373.8,164.9c-10.8,4.4-23.3,13.2-36.5,28.8c-2.1,3.3-4.1,6.4-5.9,9.4c15.3-20.3,30-31.2,42.4-36.2
					c17.7-6.8,30.8-1,31.6,9.8C406.1,164.5,392.5,157.7,373.8,164.9z"/>
				<path fill="#FFFFFF" d="M311.8,260.2c-0.1,7,1,12.5,3.6,15.6c0.5-0.3,0.8-0.9,0.1-1.9C313.1,271.2,312,266.3,311.8,260.2z"/>
			</g>
			<g display="inline">
				<path fill="#FFFFFF" d="M183,171.4c0.5-0.5,1.1-0.9,1.6-0.9c3.5-0.3,9.7,1.2,12.1,10.3c0.5,2.2,0.8,4.7,0.9,7.2
					c0-3.3-0.2-6.4-0.9-9.2c-2.4-9.1-8.5-10.6-12.1-10.3C183.5,168.5,181.5,170.5,183,171.4z"/>
				<path fill="#FFFFFF" d="M5.4,286.3c0.6-1.3,2.6-0.6,2.9,1.3c4.1,22.1,23,37.1,45,37.1c27.7,0,68-33.8,94.5-70.6
					c6.8-9.1,24.4-35.3,33.6-55.6c-0.7,0.9-1.4,1.7-2.2,2.6c-9.5,19.5-25.1,42.6-31.4,51c-26.5,36.8-66.8,70.6-94.5,70.6
					c-22.1,0-40.9-15-45-37.1c-0.3-2.4-3.5-2.9-2.9,0.3C5.4,286,5.4,286.1,5.4,286.3z"/>
				<path fill="#FFFFFF" d="M163.7,209.9c5.9-4.7,20.9-18.5,23-30.6c0-0.5,0-1-0.1-1.4c-2.4,11.9-17,25.4-22.8,30
					c-0.6,0.6-0.6,1.6-0.3,2.4C163.5,210.2,163.6,210,163.7,209.9z"/>
			</g>
			<path display="inline" fill="#FFFFFF" d="M199.6,141.7c5.3-6.2,13.2-8.2,17.7-4.7c1.6,1.3,2.5,3.2,2.8,5.4c0.2-3-0.6-5.7-2.8-7.4
				c-4.4-3.5-12.4-1.5-17.7,4.7c-3.5,3.9-5.2,8.4-4.8,12C195.1,148.5,196.7,144.9,199.6,141.7z"/>
		</g>
	</g>
</g>
</svg>
